<svg xmlns="http://www.w3.org/2000/svg" style="display:none"><symbol id="facebook" viewBox="0 0 10 18"><path d="M9.623.004L7.225 0C4.53 0 2.789 1.739 2.789 4.43v2.042H.377A.372.372 0 0 0 0 6.84V9.8c0 .203.169.367.377.367H2.79v7.467c0 .203.169.367.377.367h3.146a.372.372 0 0 0 .378-.367v-7.467h2.82a.372.372 0 0 0 .376-.367l.002-2.96c0-.097-.04-.19-.11-.26a.383.383 0 0 0-.268-.107H6.69V4.741c0-.832.203-1.255 1.317-1.255h1.616A.372.372 0 0 0 10 3.119V.37a.372.372 0 0 0-.377-.367z"/></symbol><symbol id="header-logo" viewBox="0 0 89 17"><path d="M12.962 13h-1.926V8.368c0-.89-.127-1.535-.382-1.934-.249-.398-.672-.598-1.27-.598-.503 0-.932.252-1.286.756-.349.503-.523 1.107-.523 1.81V13H5.64V8.21c0-1.582-.56-2.374-1.677-2.374-.52 0-.95.238-1.287.714-.332.476-.498 1.093-.498 1.851V13H.253V4.5H2.18v1.345h.033C2.827 4.815 3.72 4.3 4.894 4.3c.586 0 1.098.163 1.535.49.443.32.744.744.905 1.27.63-1.174 1.572-1.76 2.822-1.76 1.87 0 2.806 1.154 2.806 3.461V13zm10.906-3.727h-5.794c.022.786.263 1.392.722 1.818.465.426 1.101.639 1.91.639.907 0 1.74-.271 2.498-.814v1.553c-.775.487-1.799.73-3.072.73-1.25 0-2.232-.384-2.946-1.154-.709-.774-1.063-1.862-1.063-3.262 0-1.322.39-2.399 1.17-3.229.786-.835 1.76-1.253 2.922-1.253 1.163 0 2.062.373 2.698 1.12.637.747.955 1.785.955 3.113v.739zm-1.86-1.361c-.005-.692-.168-1.229-.49-1.61-.32-.388-.763-.582-1.327-.582-.554 0-1.024.202-1.412.606-.381.404-.617.933-.705 1.586h3.934zM34.79 13h-1.925v-1.444h-.034c-.62 1.095-1.574 1.643-2.863 1.643-1.046 0-1.885-.379-2.516-1.137-.625-.764-.938-1.801-.938-3.113 0-1.405.346-2.532 1.038-3.378.697-.847 1.624-1.27 2.78-1.27 1.146 0 1.98.46 2.5 1.378h.032V.416h1.926V13zm-1.9-3.885V8.003c0-.603-.197-1.115-.59-1.536-.393-.42-.894-.63-1.502-.63-.72 0-1.287.268-1.702.805-.41.536-.614 1.28-.614 2.233 0 .863.196 1.546.59 2.05.398.498.931.747 1.601.747.659 0 1.193-.24 1.602-.722.41-.487.614-1.099.614-1.835zm6.747-6.4c-.316 0-.587-.102-.814-.307a1.016 1.016 0 0 1-.332-.78c0-.315.11-.578.332-.789.227-.21.498-.315.814-.315.326 0 .603.105.83.315.227.21.34.474.34.789 0 .299-.113.556-.34.772-.227.21-.504.315-.83.315zM40.59 13h-1.925V4.5h1.925V13zM51 13h-1.868v-1.328h-.033c-.586 1.018-1.447 1.527-2.581 1.527-.836 0-1.492-.227-1.968-.68-.47-.454-.705-1.055-.705-1.802 0-1.605.924-2.54 2.772-2.805l2.524-.357c0-1.212-.576-1.818-1.727-1.818-1.013 0-1.926.348-2.74 1.046V5.098c.897-.532 1.932-.797 3.105-.797C49.926 4.3 51 5.358 51 7.47V13zm-1.86-4.175l-1.784.249c-.553.072-.971.207-1.253.406-.277.194-.415.537-.415 1.03 0 .36.127.655.381.888.26.227.606.34 1.038.34.587 0 1.07-.204 1.453-.614.387-.415.58-.935.58-1.56v-.74zm12.218 2.947h-.033V13h-1.926V.416h1.926v5.578h.033c.659-1.129 1.621-1.693 2.889-1.693 1.073 0 1.912.382 2.515 1.145.609.758.913 1.777.913 3.055 0 1.422-.34 2.562-1.021 3.42-.68.852-1.61 1.278-2.789 1.278-1.107 0-1.942-.476-2.507-1.428zm-.05-3.379v1.054c0 .62.197 1.146.59 1.577.398.432.902.648 1.51.648.714 0 1.273-.277 1.677-.83.41-.56.614-1.337.614-2.333 0-.835-.19-1.488-.572-1.959-.377-.476-.889-.714-1.536-.714-.686 0-1.24.244-1.66.73-.415.488-.623 1.097-.623 1.827zM77.327 13h-1.868v-1.328h-.033c-.587 1.018-1.448 1.527-2.582 1.527-.835 0-1.491-.227-1.967-.68-.47-.454-.706-1.055-.706-1.802 0-1.605.924-2.54 2.773-2.805l2.523-.357c0-1.212-.575-1.818-1.726-1.818-1.013 0-1.926.348-2.74 1.046V5.098c.897-.532 1.932-.797 3.105-.797 2.147 0 3.22 1.057 3.22 3.17V13zm-1.86-4.175l-1.784.249c-.554.072-.972.207-1.254.406-.277.194-.415.537-.415 1.03 0 .36.127.655.382.888.26.227.606.34 1.037.34.587 0 1.071-.204 1.453-.614.387-.415.581-.935.581-1.56v-.74zM88.407 4.5l-3.835 9.861c-.797 1.76-1.915 2.64-3.354 2.64-.404 0-.741-.036-1.013-.108v-1.602c.305.1.582.15.83.15.72 0 1.257-.355 1.611-1.063l.573-1.395L79.84 4.5h2.134l2.025 6.176c.022.077.072.282.15.614h.04c.029-.127.078-.326.15-.598L86.464 4.5h1.943z" fill="#000"/></symbol><symbol id="instagram" viewBox="0 0 20 20"><path d="M14.19 0H5.81A5.816 5.816 0 0 0 0 5.81v8.38A5.816 5.816 0 0 0 5.81 20h8.38A5.816 5.816 0 0 0 20 14.19V5.81A5.816 5.816 0 0 0 14.19 0zm4.248 14.19a4.252 4.252 0 0 1-4.248 4.248H5.81a4.252 4.252 0 0 1-4.247-4.248V5.81A4.252 4.252 0 0 1 5.81 1.563h8.38a4.252 4.252 0 0 1 4.248 4.247v8.38z"/><path d="M10 4.61A5.397 5.397 0 0 0 4.61 10 5.397 5.397 0 0 0 10 15.39 5.397 5.397 0 0 0 15.39 10 5.397 5.397 0 0 0 10 4.61zm0 9.218A3.832 3.832 0 0 1 6.172 10 3.832 3.832 0 0 1 10 6.172 3.832 3.832 0 0 1 13.828 10 3.832 3.832 0 0 1 10 13.828zM15.469 5.313a.781.781 0 1 0 0-1.563.781.781 0 0 0 0 1.563z"/></symbol><symbol id="main-logo" viewBox="0 0 180 56"><path fill-rule="evenodd" clip-rule="evenodd" d="M161.081 50.673c4.133 0 5.939-1.603 5.939-5.192v-7.358c0-3.68-1.739-5.192-5.939-5.192-4.201 0-5.804 1.52-5.804 5.192v7.358c0 3.582 1.671 5.192 5.804 5.192zm0-2.754c-2.259 0-2.688-.948-2.688-2.596v-7.042c0-1.58.429-2.596 2.688-2.596 2.416 0 2.823 1.022 2.823 2.596v7.042c0 1.641-.565 2.596-2.823 2.596zM154.296 50.514l-6.187-8.69 5.7-8.735h-3.636l-4.593 7.358h-.836V33.09h-3.116v17.425h3.093V43.54h.881l4.901 6.975h3.793zM126.119 50.514h9.892v2.483h2.935v-5.26h-1.558V33.09h-3.116v14.649h-5.059v-14.65h-3.094v17.426zM105.294 33.089h-3.117l-4.833 17.425h3.23l1.761-6.636 1.355-5.959c.452 1.986.861 4.02 1.355 5.959.564 2.21 1.13 4.424 1.784 6.636h3.23l-4.765-17.425zM85.094 33.089v17.425h10.32v-2.776h-7.203v-4.65h5.871v-2.776h-5.871v-4.447h6.888V33.09H85.094zM82.32 33.089H69.113v2.776h5.068v14.65h3.094v-14.65h5.045V33.09zM118.337 6.002v17.426h10.32V20.65h-7.204v-4.65h5.872v-2.776h-5.872V8.78h6.888V6.002h-10.004zM111.503 6.002h-3.117l-4.832 17.426h3.229l1.762-6.636 1.355-5.959c.451 1.986.86 4.019 1.355 5.959.564 2.21 1.129 4.424 1.784 6.636h3.229l-4.765-17.426zM97.13 6.002h-3.054l-4.83 17.426h3.207l.762-3.07h4.708l.763 3.07h3.206L97.13 6.002zm-3.225 11.58l1.664-6.704 1.665 6.704h-3.33zM87.078 23.428V6.002h-3.161v14.65h-4.275V6.001h-3.07v14.65h-4.32V6.001h-3.139v17.426h17.965zM112.613 33.089v17.425h10.32v-2.776h-7.203v-4.65h5.871v-2.776h-5.871v-4.447h6.887V33.09h-10.004zM169.68 33.089v17.425H180v-2.776h-7.204v-4.65h5.872v-2.776h-5.872v-4.447h6.888V33.09H169.68z" fill="#414141"/><path fill-rule="evenodd" clip-rule="evenodd" d="M0 55.52h54.589V.959H0v54.563z" fill="#E00"/><path fill-rule="evenodd" clip-rule="evenodd" d="M42.121 25.942h-4.597v12.522h-7.93V18.016H42.12V13.42H12.468v4.596h12.528v20.448h-7.93V25.942H12.47v17.117H42.12V25.942z" fill="#fff"/></symbol><symbol id="vk" viewBox="0 0 27 15"><path d="M26.857 13.547a1.79 1.79 0 0 0-.092-.171c-.468-.822-1.363-1.83-2.685-3.026l-.028-.027-.014-.014-.014-.013h-.014c-.6-.557-.98-.931-1.139-1.123-.29-.365-.356-.735-.197-1.109.113-.283.535-.88 1.266-1.793.384-.484.688-.871.913-1.163 1.622-2.1 2.325-3.44 2.109-4.025l-.084-.136c-.056-.082-.201-.158-.435-.226-.235-.069-.535-.08-.9-.034l-4.049.027a.539.539 0 0 0-.281.007l-.183.041-.07.034-.056.041a.617.617 0 0 0-.155.144.932.932 0 0 0-.14.24 22.104 22.104 0 0 1-1.505 3.08 29.114 29.114 0 0 1-.956 1.471c-.29.415-.534.72-.73.917a5.052 5.052 0 0 1-.535.472c-.16.119-.28.17-.365.15a10.524 10.524 0 0 1-.24-.054.92.92 0 0 1-.315-.335 1.472 1.472 0 0 1-.162-.534 5.718 5.718 0 0 1-.05-.555c-.004-.155-.002-.374.008-.657.01-.283.014-.474.014-.575 0-.347.007-.723.02-1.129.015-.406.026-.728.036-.965.01-.237.014-.488.014-.753s-.017-.472-.05-.623a2.088 2.088 0 0 0-.146-.438.743.743 0 0 0-.289-.328 1.65 1.65 0 0 0-.47-.185C14.39.07 13.757.01 12.988.002c-1.743-.018-2.863.091-3.36.329-.196.1-.374.237-.533.41-.17.2-.193.31-.07.329.561.082.96.278 1.194.588l.084.164c.066.12.132.33.197.63.066.301.108.634.127 1a10.37 10.37 0 0 1 0 1.71c-.047.475-.091.844-.134 1.11-.042.264-.105.478-.19.642-.084.165-.14.265-.168.301a.24.24 0 0 1-.07.069 1.078 1.078 0 0 1-.38.069c-.131 0-.29-.064-.478-.192a3.34 3.34 0 0 1-.583-.527 7.05 7.05 0 0 1-.682-.938 16.228 16.228 0 0 1-.788-1.423l-.224-.398c-.141-.255-.333-.627-.577-1.115-.244-.488-.46-.96-.646-1.417A.905.905 0 0 0 5.37.905L5.3.864a.97.97 0 0 0-.225-.116 1.523 1.523 0 0 0-.323-.09L.9.687c-.394 0-.66.087-.801.26l-.057.082a.433.433 0 0 0-.042.22c0 .1.028.223.084.369A44.664 44.664 0 0 0 1.92 5.34c.66 1.196 1.235 2.158 1.722 2.888.487.73.984 1.42 1.49 2.067.506.648.841 1.063 1.005 1.246.164.182.293.32.387.41l.351.329c.225.219.555.481.991.787.436.306.919.607 1.448.904.53.296 1.146.538 1.849.725a6.555 6.555 0 0 0 2.052.226h1.617c.328-.028.576-.128.745-.301l.056-.069a.896.896 0 0 0 .105-.253c.033-.114.05-.24.05-.376-.01-.393.02-.746.09-1.061.07-.315.15-.552.24-.712.09-.16.19-.294.302-.403.113-.11.193-.176.24-.199a.953.953 0 0 1 .112-.048c.225-.073.49-.002.794.213.305.214.59.479.858.793.267.315.588.669.963 1.061.375.393.703.684.984.876l.28.165c.188.11.432.21.732.3.3.092.562.115.787.07l3.599-.055c.356 0 .633-.058.829-.172.197-.114.314-.24.351-.376.038-.137.04-.292.008-.466a1.688 1.688 0 0 0-.1-.362z"/></symbol></svg>