<svg viewBox="0 0 89 17" fill="none" xmlns="http://www.w3.org/2000/svg">
<path d="M12.9619 13H11.0361V8.36816C11.0361 7.47721 10.9089 6.83252 10.6543 6.43408C10.4053 6.03564 9.98193 5.83643 9.38428 5.83643C8.8807 5.83643 8.45182 6.08822 8.09766 6.5918C7.74902 7.09538 7.57471 7.69857 7.57471 8.40137V13H5.64062V8.21045C5.64062 6.62777 5.08171 5.83643 3.96387 5.83643C3.44368 5.83643 3.01481 6.07438 2.67725 6.55029C2.34521 7.0262 2.1792 7.64323 2.1792 8.40137V13H0.253418V4.5H2.1792V5.84473H2.2124C2.82666 4.81543 3.72038 4.30078 4.89355 4.30078C5.48014 4.30078 5.99202 4.46403 6.4292 4.79053C6.87191 5.11149 7.1735 5.53483 7.33398 6.06055C7.96484 4.88737 8.9056 4.30078 10.1562 4.30078C12.0267 4.30078 12.9619 5.45459 12.9619 7.76221V13ZM23.8678 9.27295H18.0739C18.096 10.0588 18.3367 10.6647 18.796 11.0908C19.2609 11.5169 19.8973 11.73 20.7052 11.73C21.6128 11.73 22.4456 11.4588 23.2038 10.9165V12.4688C22.429 12.9557 21.4052 13.1992 20.1325 13.1992C18.8818 13.1992 17.8996 12.8146 17.1857 12.0454C16.4774 11.2707 16.1232 10.1833 16.1232 8.7832C16.1232 7.46061 16.5133 6.38428 17.2936 5.5542C18.0794 4.71859 19.0534 4.30078 20.2155 4.30078C21.3776 4.30078 22.2768 4.67432 22.9132 5.42139C23.5496 6.16846 23.8678 7.20605 23.8678 8.53418V9.27295ZM22.0084 7.91162C22.0029 7.21989 21.8397 6.68311 21.5187 6.30127C21.1977 5.9139 20.755 5.72021 20.1906 5.72021C19.6372 5.72021 19.1668 5.9222 18.7794 6.32617C18.3976 6.73014 18.1624 7.25863 18.0739 7.91162H22.0084ZM34.7903 13H32.8645V11.5557H32.8313C32.2115 12.6514 31.2569 13.1992 29.9676 13.1992C28.9217 13.1992 28.0833 12.8201 27.4524 12.062C26.8271 11.2983 26.5144 10.2607 26.5144 8.94922C26.5144 7.54362 26.8603 6.41748 27.552 5.5708C28.2493 4.72412 29.1762 4.30078 30.3328 4.30078C31.4783 4.30078 32.3111 4.76009 32.8313 5.67871H32.8645V0.416016H34.7903V13ZM32.8894 9.11523V8.00293C32.8894 7.39974 32.693 6.88786 32.3001 6.46729C31.9072 6.04671 31.4064 5.83643 30.7976 5.83643C30.0782 5.83643 29.511 6.10482 29.096 6.6416C28.6865 7.17839 28.4817 7.92269 28.4817 8.87451C28.4817 9.73779 28.6782 10.4212 29.0711 10.9248C29.4695 11.4229 30.0035 11.6719 30.6731 11.6719C31.3317 11.6719 31.8657 11.4312 32.2752 10.9497C32.6847 10.4627 32.8894 9.85124 32.8894 9.11523ZM39.6366 2.71533C39.3212 2.71533 39.0501 2.61296 38.8232 2.4082C38.6018 2.20345 38.4911 1.94336 38.4911 1.62793C38.4911 1.3125 38.6018 1.04964 38.8232 0.839355C39.0501 0.629069 39.3212 0.523926 39.6366 0.523926C39.9631 0.523926 40.2398 0.629069 40.4667 0.839355C40.6936 1.04964 40.8071 1.3125 40.8071 1.62793C40.8071 1.92676 40.6936 2.18408 40.4667 2.3999C40.2398 2.61019 39.9631 2.71533 39.6366 2.71533ZM40.5912 13H38.6655V4.5H40.5912V13ZM50.9991 13H49.1314V11.6719H49.0982C48.5116 12.6901 47.6511 13.1992 46.5167 13.1992C45.681 13.1992 45.0253 12.9723 44.5494 12.5186C44.079 12.0648 43.8438 11.4644 43.8438 10.7173C43.8438 9.11247 44.768 8.17725 46.6163 7.91162L49.1397 7.55469C49.1397 6.34277 48.5642 5.73682 47.4131 5.73682C46.4004 5.73682 45.4874 6.08545 44.6739 6.78271V5.09766C45.5704 4.56641 46.6052 4.30078 47.7784 4.30078C49.9255 4.30078 50.9991 5.35775 50.9991 7.47168V13ZM49.1397 8.82471L47.355 9.07373C46.8017 9.14567 46.3838 9.28125 46.1016 9.48047C45.8249 9.67415 45.6866 10.0173 45.6866 10.5098C45.6866 10.8695 45.8139 11.1655 46.0684 11.3979C46.3285 11.6248 46.6744 11.7383 47.106 11.7383C47.6926 11.7383 48.1768 11.5335 48.5587 11.124C48.946 10.709 49.1397 10.1888 49.1397 9.56348V8.82471ZM61.3571 11.7715H61.3239V13H59.3981V0.416016H61.3239V5.99414H61.3571C62.0157 4.86523 62.9785 4.30078 64.2458 4.30078C65.3194 4.30078 66.1577 4.68262 66.7609 5.44629C67.3697 6.20443 67.674 7.22266 67.674 8.50098C67.674 9.92318 67.3337 11.0632 66.653 11.9209C65.9724 12.7731 65.0427 13.1992 63.864 13.1992C62.7572 13.1992 61.9216 12.7233 61.3571 11.7715ZM61.3073 8.39307V9.44727C61.3073 10.0671 61.5038 10.5928 61.8967 11.0244C62.2951 11.4561 62.7987 11.6719 63.4074 11.6719C64.1213 11.6719 64.6802 11.3952 65.0842 10.8418C65.4937 10.2829 65.6984 9.50537 65.6984 8.50928C65.6984 7.67367 65.5075 7.02067 65.1257 6.55029C64.7494 6.07438 64.2375 5.83643 63.59 5.83643C62.9038 5.83643 62.3505 6.07992 61.9299 6.56689C61.5148 7.05387 61.3073 7.6626 61.3073 8.39307ZM77.3265 13H75.4588V11.6719H75.4256C74.839 12.6901 73.9785 13.1992 72.8441 13.1992C72.0085 13.1992 71.3527 12.9723 70.8768 12.5186C70.4064 12.0648 70.1712 11.4644 70.1712 10.7173C70.1712 9.11247 71.0954 8.17725 72.9437 7.91162L75.4671 7.55469C75.4671 6.34277 74.8916 5.73682 73.7406 5.73682C72.7279 5.73682 71.8148 6.08545 71.0013 6.78271V5.09766C71.8978 4.56641 72.9326 4.30078 74.1058 4.30078C76.2529 4.30078 77.3265 5.35775 77.3265 7.47168V13ZM75.4671 8.82471L73.6825 9.07373C73.1291 9.14567 72.7113 9.28125 72.429 9.48047C72.1524 9.67415 72.014 10.0173 72.014 10.5098C72.014 10.8695 72.1413 11.1655 72.3958 11.3979C72.6559 11.6248 73.0018 11.7383 73.4334 11.7383C74.02 11.7383 74.5042 11.5335 74.8861 11.124C75.2734 10.709 75.4671 10.1888 75.4671 9.56348V8.82471ZM88.4067 4.5L84.5718 14.3613C83.7749 16.1211 82.657 17.001 81.2182 17.001C80.8143 17.001 80.4767 16.965 80.2055 16.8931V15.291C80.5099 15.3906 80.7866 15.4404 81.0356 15.4404C81.755 15.4404 82.2918 15.0863 82.646 14.3779L83.2187 12.9834L79.8403 4.5H81.9736L83.999 10.6758C84.0211 10.7533 84.0709 10.958 84.1484 11.29H84.1899C84.2176 11.1628 84.2674 10.9635 84.3393 10.6924L86.4643 4.5H88.4067Z" fill="black"/>
</svg>
