<svg viewBox="0 0 180 56" fill="none" xmlns="http://www.w3.org/2000/svg">
<path fill-rule="evenodd" clip-rule="evenodd" d="M161.081 50.6727C165.214 50.6727 167.02 49.0702 167.02 45.4814V38.1225C167.02 34.4435 165.281 32.9312 161.081 32.9312C156.88 32.9312 155.277 34.4503 155.277 38.1225V45.4814C155.277 49.0634 156.948 50.6727 161.081 50.6727ZM161.081 47.9191C158.822 47.9191 158.393 46.971 158.393 45.3232V38.2806C158.393 36.7008 158.822 35.6848 161.081 35.6848C163.497 35.6848 163.904 36.7072 163.904 38.2806V45.3232C163.904 46.9642 163.339 47.9191 161.081 47.9191Z" fill="#414141"/>
<path fill-rule="evenodd" clip-rule="evenodd" d="M154.296 50.5141L148.109 41.8241L153.809 33.0889H150.173L145.58 40.4473H144.744V33.0889H141.628V50.5141H144.721V43.5395H145.602L150.503 50.5141H154.296Z" fill="#414141"/>
<path fill-rule="evenodd" clip-rule="evenodd" d="M126.119 50.5141H136.011V52.9971H138.946V47.7378H137.388V33.0889H134.272V47.7378H129.213V33.0889H126.119V50.5141Z" fill="#414141"/>
<path fill-rule="evenodd" clip-rule="evenodd" d="M105.294 33.0889H102.177L97.3445 50.5141H100.574L102.335 43.878L103.69 37.919C104.142 39.9053 104.551 41.9383 105.045 43.878C105.609 46.0883 106.175 48.3021 106.829 50.5141H110.059L105.294 33.0889Z" fill="#414141"/>
<path fill-rule="evenodd" clip-rule="evenodd" d="M85.0945 33.0889V50.5141H95.4146V47.7378H88.2108V43.0881H94.0825V40.3118H88.2108V35.8651H95.0985V33.0889H85.0945Z" fill="#414141"/>
<path fill-rule="evenodd" clip-rule="evenodd" d="M82.3198 33.0889H69.113V35.8651H74.1807V50.5141H77.2748V35.8651H82.3198V33.0889Z" fill="#414141"/>
<path fill-rule="evenodd" clip-rule="evenodd" d="M118.337 6.00244V23.4277H128.657V20.6514H121.453V16.0017H127.325V13.2254H121.453V8.7787H128.341V6.00244H118.337Z" fill="#414141"/>
<path fill-rule="evenodd" clip-rule="evenodd" d="M111.503 6.00244H108.386L103.554 23.4277H106.783L108.545 16.7916L109.9 10.833C110.351 12.8193 110.76 14.8518 111.255 16.7916C111.819 19.0023 112.384 21.2161 113.039 23.4277H116.268L111.503 6.00244Z" fill="#414141"/>
<path fill-rule="evenodd" clip-rule="evenodd" d="M97.1301 6.00244H94.0762L89.2463 23.4277H92.4529L93.2154 20.3582H97.9234L98.6855 23.4277H101.892L97.1301 6.00244ZM93.9048 17.5819L95.5692 10.8779L97.234 17.5819H93.9048Z" fill="#414141"/>
<path fill-rule="evenodd" clip-rule="evenodd" d="M87.0779 23.4277V6.00244H83.9167V20.6514H79.6423V6.00244C78.6035 6.00244 77.5874 6.00244 76.5713 6.00244V20.6514H72.252V6.00244H69.113V23.4277C75.2554 23.4277 80.9355 23.4277 87.0779 23.4277Z" fill="#414141"/>
<path fill-rule="evenodd" clip-rule="evenodd" d="M112.613 33.0889V50.5141H122.933V47.7378H115.73V43.0881H121.601V40.3118H115.73V35.8651H122.617V33.0889H112.613Z" fill="#414141"/>
<path fill-rule="evenodd" clip-rule="evenodd" d="M169.68 33.0889V50.5141H180V47.7378H172.796V43.0881H178.668V40.3118H172.796V35.8651H179.684V33.0889H169.68Z" fill="#414141"/>
<path fill-rule="evenodd" clip-rule="evenodd" d="M0 55.5206H54.589V0.958008H0V55.5206Z" fill="#EE0000"/>
<path fill-rule="evenodd" clip-rule="evenodd" d="M42.1211 25.942H37.5238V38.4636H29.5938V18.0159H42.1211V13.4204H12.4685V18.0159H24.9962V38.4636H17.0662V25.942H12.4685V43.059H42.1211V25.942Z" fill="white"/>
</svg>
